<svg class="main-svg" xmlns="http://www.w3.org/2000/svg" xmlns:xlink="http://www.w3.org/1999/xlink" width="700" height="600" viewBox="0 0 700 600"><rect x="0" y="0" width="700" height="600" style="fill: rgb(255, 255, 255); fill-opacity: 1;"/><defs id="defs-ccf3ea"><g class="clips"><clipPath id="clipccf3eapolar-for-traces"><path d="M230,0A230,230 0,1,0 -230,-2.8166876380389125e-14A230,230 0,1,0 230,5.633375276077825e-14Z" transform="translate(230,230)"/></clipPath></g><g class="gradients"/></defs><g class="bglayer"/><g class="layer-below"><g class="imagelayer"/><g class="shapelayer"/></g><g class="cartesianlayer"/><g class="polarlayer"><g class="polar"><g class="polarsublayer draglayer"/><g class="polarsublayer plotbg"><path d="M230,0A230,230 0,1,0 -230,-2.8166876380389125e-14A230,230 0,1,0 230,5.633375276077825e-14Z" transform="translate(344.6,290)" style="fill: rgb(229, 236, 246); fill-opacity: 1;"/></g><g class="polarsublayer backplot"><g class="maplayer"/></g><g class="polarsublayer angular-grid" style="fill: none;"><path class="angularaxisgrid" d="M344.6,290L344.6,60" style="stroke: rgb(255, 255, 255); stroke-opacity: 1; stroke-width: 1px;"/><path class="angularaxisgrid" d="M344.6,290L479.79060802726883,103.92609129376208" style="stroke: rgb(255, 255, 255); stroke-opacity: 1; stroke-width: 1px;"/><path class="angularaxisgrid" d="M344.6,290L563.3429987478853,218.9260912937621" style="stroke: rgb(255, 255, 255); stroke-opacity: 1; stroke-width: 1px;"/><path class="angularaxisgrid" d="M344.6,290L563.3429987478853,361.0739087062379" style="stroke: rgb(255, 255, 255); stroke-opacity: 1; stroke-width: 1px;"/><path class="angularaxisgrid" d="M344.6,290L479.79060802726883,476.07390870623794" style="stroke: rgb(255, 255, 255); stroke-opacity: 1; stroke-width: 1px;"/><path class="angularaxisgrid" d="M344.6,290L344.6,520" style="stroke: rgb(255, 255, 255); stroke-opacity: 1; stroke-width: 1px;"/><path class="angularaxisgrid" d="M344.6,290L209.4093919727312,476.07390870623794" style="stroke: rgb(255, 255, 255); stroke-opacity: 1; stroke-width: 1px;"/><path class="angularaxisgrid" d="M344.6,290L125.85700125211471,361.07390870623794" style="stroke: rgb(255, 255, 255); stroke-opacity: 1; stroke-width: 1px;"/><path class="angularaxisgrid" d="M344.6,290L125.85700125211469,218.9260912937621" style="stroke: rgb(255, 255, 255); stroke-opacity: 1; stroke-width: 1px;"/><path class="angularaxisgrid" d="M344.6,290L209.40939197273119,103.92609129376211" style="stroke: rgb(255, 255, 255); stroke-opacity: 1; stroke-width: 1px;"/></g><g class="polarsublayer radial-grid" transform="translate(344.6,290)" style="fill: none;"><path class="xgrid" d="M47.92,0A47.92,47.92 0,1,0 -47.92,-5.868507461514117e-15A47.92,47.92 0,1,0 47.92,1.1737014923028234e-14Z" style="stroke: rgb(255, 255, 255); stroke-opacity: 1; stroke-width: 1px;"/><path class="xgrid" d="M95.83,0A95.83,95.83 0,1,0 -95.83,-1.1735790276229085e-14A95.83,95.83 0,1,0 95.83,2.347158055245817e-14Z" style="stroke: rgb(255, 255, 255); stroke-opacity: 1; stroke-width: 1px;"/><path class="xgrid" d="M143.75,0A143.75,143.75 0,1,0 -143.75,-1.7604297737743203e-14A143.75,143.75 0,1,0 143.75,3.5208595475486406e-14Z" style="stroke: rgb(255, 255, 255); stroke-opacity: 1; stroke-width: 1px;"/><path class="xgrid" d="M191.67,0A191.67,191.67 0,1,0 -191.67,-2.347280519925732e-14A191.67,191.67 0,1,0 191.67,4.694561039851464e-14Z" style="stroke: rgb(255, 255, 255); stroke-opacity: 1; stroke-width: 1px;"/></g><g class="polarsublayer frontplot" transform="translate(114.60000000000002,60)" clip-path="url('#clipccf3eapolar-for-traces')"><g class="barlayer"/><g class="scatterlayer"><g class="trace scatter trace7cd9cc" style="stroke-miterlimit: 2; opacity: 1;"><g class="fills"><g><path class="js-fill" d="M230,0L359.56,51.68L421.4,167.81L421.4,292.19L342.66,385.06L230,421.67L122.97,377.31L65.94,283.31L65.94,176.69L145.51,113.7Z" style="fill: rgb(99, 110, 250); fill-opacity: 0.5; stroke-width: 0;"/></g></g><g class="errorbars"/><g class="lines"><path class="js-line" d="M230,0L359.56,51.68L421.4,167.81L421.4,292.19L342.66,385.06L230,421.67L122.97,377.31L65.94,283.31L65.94,176.69L145.51,113.7" style="vector-effect: non-scaling-stroke; fill: none; stroke: rgb(99, 110, 250); stroke-opacity: 1; stroke-width: 2px; opacity: 1;"/></g><g class="points"/><g class="text"/></g></g></g><g class="polarsublayer angular-line"><path d="M230,0A230,230 0,1,0 -230,-2.8166876380389125e-14A230,230 0,1,0 230,5.633375276077825e-14Z" transform="translate(344.6,290)" stroke-width="1" style="fill: none; stroke: rgb(255, 255, 255); stroke-opacity: 1;"/></g><g class="polarsublayer radial-line"><line x1="0" y1="0" x2="230" y2="0" transform="translate(344.6,290)rotate(0)" stroke-width="1" style="fill: none; stroke: rgb(255, 255, 255); stroke-opacity: 1;"/></g><g class="polarsublayer angular-axis"><g class="angularaxistick"><text text-anchor="middle" x="1.7757378587636624e-16" y="-5.300000000000001" transform="translate(344.6,60)" style="font-family: 'Open Sans', verdana, arial, sans-serif; font-size: 12px; fill: rgb(42, 63, 95); fill-opacity: 1; white-space: pre;">doctor</text></g><g class="angularaxistick"><text text-anchor="start" x="1.7045772316481722" y="-1.8190920105588355" transform="translate(479.79060802726883,103.92609129376208)" style="font-family: 'Open Sans', verdana, arial, sans-serif; font-size: 12px; fill: rgb(42, 63, 95); fill-opacity: 1; white-space: pre;">wait</text></g><g class="angularaxistick"><text text-anchor="start" x="2.7580638972559455" y="2.3566472982524225" transform="translate(563.3429987478853,218.9260912937621)" style="font-family: 'Open Sans', verdana, arial, sans-serif; font-size: 12px; fill: rgb(42, 63, 95); fill-opacity: 1; white-space: pre;">nurse</text></g><g class="angularaxistick"><text text-anchor="start" x="2.7580638972559455" y="8.59879058462636" transform="translate(563.3429987478853,361.0739087062379)" style="font-family: 'Open Sans', verdana, arial, sans-serif; font-size: 12px; fill: rgb(42, 63, 95); fill-opacity: 1; white-space: pre;">time</text></g><g class="angularaxistick"><text text-anchor="start" x="1.7045772316481722" y="14.523051275815105" transform="translate(479.79060802726883,476.07390870623794)" style="font-family: 'Open Sans', verdana, arial, sans-serif; font-size: 12px; fill: rgb(42, 63, 95); fill-opacity: 1; white-space: pre;">come</text></g><g class="angularaxistick"><text text-anchor="middle" x="1.7757378587636624e-16" y="14.9" transform="translate(344.6,520)" style="font-family: 'Open Sans', verdana, arial, sans-serif; font-size: 12px; fill: rgb(42, 63, 95); fill-opacity: 1; white-space: pre;">people</text></g><g class="angularaxistick"><text text-anchor="end" x="-1.704577231648172" y="14.523051275815103" transform="translate(209.4093919727312,476.07390870623794)" style="font-family: 'Open Sans', verdana, arial, sans-serif; font-size: 12px; fill: rgb(42, 63, 95); fill-opacity: 1; white-space: pre;">like</text></g><g class="angularaxistick"><text text-anchor="end" x="-2.7580638972559455" y="8.598790584626363" transform="translate(125.85700125211471,361.07390870623794)" style="font-family: 'Open Sans', verdana, arial, sans-serif; font-size: 12px; fill: rgb(42, 63, 95); fill-opacity: 1; white-space: pre;">go</text></g><g class="angularaxistick"><text text-anchor="end" x="-2.758063897255946" y="2.356647298252424" transform="translate(125.85700125211469,218.9260912937621)" style="font-family: 'Open Sans', verdana, arial, sans-serif; font-size: 12px; fill: rgb(42, 63, 95); fill-opacity: 1; white-space: pre;">work</text></g><g class="angularaxistick"><text text-anchor="end" x="-1.7045772316481727" y="-1.8190920105588342" transform="translate(209.40939197273119,103.92609129376211)" style="font-family: 'Open Sans', verdana, arial, sans-serif; font-size: 12px; fill: rgb(42, 63, 95); fill-opacity: 1; white-space: pre;">bad</text></g></g><g class="polarsublayer radial-axis" transform="translate(344.6,290)rotate(0)"><g class="xtick"><text text-anchor="middle" x="0" y="14.9" transform="translate(0,0)" style="font-family: 'Open Sans', verdana, arial, sans-serif; font-size: 12px; fill: rgb(42, 63, 95); fill-opacity: 1; white-space: pre;">0</text></g><g class="xtick"><text text-anchor="middle" x="0" y="14.9" transform="translate(47.92,0)" style="font-family: 'Open Sans', verdana, arial, sans-serif; font-size: 12px; fill: rgb(42, 63, 95); fill-opacity: 1; white-space: pre;">5</text></g><g class="xtick"><text text-anchor="middle" x="0" y="14.9" transform="translate(95.83,0)" style="font-family: 'Open Sans', verdana, arial, sans-serif; font-size: 12px; fill: rgb(42, 63, 95); fill-opacity: 1; white-space: pre;">10</text></g><g class="xtick"><text text-anchor="middle" x="0" y="14.9" transform="translate(143.75,0)" style="font-family: 'Open Sans', verdana, arial, sans-serif; font-size: 12px; fill: rgb(42, 63, 95); fill-opacity: 1; white-space: pre;">15</text></g><g class="xtick"><text text-anchor="middle" x="0" y="14.9" transform="translate(191.67,0)" style="font-family: 'Open Sans', verdana, arial, sans-serif; font-size: 12px; fill: rgb(42, 63, 95); fill-opacity: 1; white-space: pre;">20</text></g></g></g></g><g class="ternarylayer"/><g class="geolayer"/><g class="funnelarealayer"/><g class="pielayer"/><g class="sunburstlayer"/><g class="glimages"/><defs id="topdefs-ccf3ea"><g class="clips"/></defs><g class="layer-above"><g class="imagelayer"/><g class="shapelayer"/></g><g class="infolayer"><g class="g-gtitle"/><g class="g-polartitle"/></g></svg>